HIERARCHY
ROOT pelvis
{
  OFFSET 0 100 0
  CHANNELS 6 Xposition Yposition Zposition Zrotation Xrotation Yrotation
  JOINT pelvis_right_femur
  {
    OFFSET -10.78128 -3.44521 -0.5502486
    CHANNELS 3 Zrotation Xrotation Yrotation
    JOINT right_femur_tibia
    {
      OFFSET -0.8047443 -44.0398 -0.1307829
      CHANNELS 3 Zrotation Xrotation Yrotation
      JOINT right_tibia_foot
      {
        OFFSET 3.006224 -47.83518 -5
        CHANNELS 3 Zrotation Xrotation Yrotation
        End Site
        {
          OFFSET 0 -5 15
        }
      }
    }
  }
  JOINT pelvis_left_femur
  {
    OFFSET 10.78128 -3.44521 -0.5502486
    CHANNELS 3 Zrotation Xrotation Yrotation
    JOINT left_femur_tibia
    {
      OFFSET 0.8047443 -44.0398 -0.1307829
      CHANNELS 3 Zrotation Xrotation Yrotation
      JOINT left_tibia_foot
      {
        OFFSET -4.370144 -48.10324 -4.275266
        CHANNELS 3 Zrotation Xrotation Yrotation
        End Site
        {
          OFFSET 0 -5 15
        }
      }
    }
  }
  JOINT pelvis_spine1
  {
    OFFSET 0 6.468898 -3.129235
    CHANNELS 3 Zrotation Xrotation Yrotation
    JOINT spine1
    {
      OFFSET 0 23.15396 4.99043
      CHANNELS 3 Zrotation Xrotation Yrotation
      JOINT spine2
      {
        OFFSET 0 20.79997 -5.064912
        CHANNELS 3 Zrotation Xrotation Yrotation
        JOINT neck
        {
          OFFSET 0 14.38658 9.616178
          CHANNELS 3 Zrotation Xrotation Yrotation
          End Site
          {
            OFFSET 0 20 0
          }
        }
      }
      JOINT right_manubrium
      {
        OFFSET -5.722621 16.35077 3.967754
        CHANNELS 3 Zrotation Xrotation Yrotation
        JOINT right_clavicle
        {
          OFFSET -13.16364 1.694482 -4.693211
          CHANNELS 3 Zrotation Xrotation Yrotation
          JOINT right_humerus
          {
            OFFSET -28.5034 -0.3100689 -2.792744
            CHANNELS 3 Zrotation Xrotation Yrotation
            JOINT right_radius
            {
              OFFSET -25.15693 0.02248979 -1.271978
              CHANNELS 3 Zrotation Xrotation Yrotation
              End Site
              {
                OFFSET -15 0 0
              }
            }
          }
        }
      }
      JOINT left_manubrium
      {
        OFFSET 5.722621 16.35077 3.967754
        CHANNELS 3 Zrotation Xrotation Yrotation
        JOINT left_clavicle
        {
          OFFSET 13.16364 1.694482 -4.693211
          CHANNELS 3 Zrotation Xrotation Yrotation
          JOINT left_humerus
          {
            OFFSET 29.39168 -1.063119 -2.237045
            CHANNELS 3 Zrotation Xrotation Yrotation
            JOINT left_radius
            {
              OFFSET 24.59957 -0.9528479 0.9047498
              CHANNELS 3 Zrotation Xrotation Yrotation
              End Site
              {
                OFFSET 15 -0 -0
              }
            }
          }
        }
      }
    }
  }
}
MOTION
Frames: 15
Frame Time: 0.0416666666667
-43.38896 100.6467 3049.936 -0.2107965 -10.3499 -6.231161 4.813594 6.458634 3.827001 -0 14.21716 -0 -4.827322 -10.15373 -4.804369 -1.276159 -11.98593 -5.346377 -0 50.94521 -0 -5.996567 -7.408675 19.68096 0.4843202 -3.105065 6.600045 -0.5324913 16.19709 -5.729871 0.1665768 21.12465 5.361089 5.607228 -16.19256 2.810111 1.854293 -24.26285 12.92953 87.14671 19.10427 -15.00088 -0 0 20.95004 -24.74217 13.07119 10.56584 5.886152 -26.80749 -9.82521 -94.47099 9.335443 27.71261 0 0 -6.195157 13.20285 14.97994 -3.759842
-43.86416 100.3878 3055.549 -0.291169 -9.520755 -7.113454 4.505615 10.14631 3.712019 -0 13.09613 -0 -4.161642 -12.32315 -3.737197 -0.1169828 -17.50676 -4.672267 -0 42.34349 -0 -6.027742 -7.712522 20.20606 0.5226921 -3.430249 6.968697 -0.5467052 16.2996 -5.468315 0.220672 21.00535 5.137008 5.258975 -16.10356 2.888766 1.882766 -25.24519 13.05223 86.46747 18.53163 -13.72096 -0 0 22.56227 -25.08063 13.74837 11.42319 5.456349 -26.24722 -9.537419 -95.6731 9.638845 29.90572 0 0 -3.98708 12.10101 15.11293 -2.375721
-44.2289 99.66369 3061.335 -0.5284737 -8.435473 -7.927911 4.226217 13.21335 3.708963 -0 12.8417 -0 -3.189037 -14.26457 -2.771373 1.049578 -21.66871 -4.016433 -0 33.20838 -0 -6.143791 -7.692171 20.43788 0.4999331 -3.675054 7.252198 -0.5654593 16.28056 -5.212882 0.2731075 20.92243 4.957321 4.951203 -16.04619 2.986773 1.9062 -26.04802 13.1224 85.8257 18.2434 -12.5101 -0 0 23.91847 -25.41506 14.29929 12.21298 5.116178 -25.65905 -9.213204 -96.60877 9.908241 31.63165 0 0 -2.233908 11.1491 15.16818 -1.235546
-44.48772 98.67857 3067.421 -0.7258618 -7.376885 -8.684416 3.75939 15.78362 3.769359 -0 13.80827 -0 -2.092347 -15.47819 -1.986919 1.699341 -24.25662 -3.730697 -0 25.52564 -0 -6.242583 -7.490655 20.49914 0.4156668 -3.800088 7.426018 -0.6157851 16.12377 -4.93697 0.3305807 20.92441 4.860852 4.725316 -16.01031 3.125866 1.930306 -26.57885 13.12407 85.23406 18.28477 -11.37831 -0 0 24.88297 -25.72795 14.63668 12.88886 4.886126 -25.03775 -8.863314 -97.27631 10.19363 32.81581 0 0 -0.8546366 10.41992 15.19814 -0.4038411
-44.65587 97.68255 3073.874 -0.6766126 -6.564534 -9.355547 2.924714 17.83473 3.833839 -0 16.37165 -0 -1.075353 -15.38146 -1.435951 1.418905 -25.29865 -4.113826 -0 20.54289 -0 -6.194515 -7.369633 20.48881 0.2773883 -3.772904 7.462473 -0.7177763 15.82943 -4.626439 0.4012143 21.05504 4.878093 4.615663 -15.98926 3.32455 1.956995 -26.74389 13.04855 84.72638 18.65818 -10.36938 -0 0 25.30886 -25.99703 14.6885 13.40332 4.784464 -24.39656 -8.512107 -97.66754 10.538 33.36829 -0 0 0.1935835 9.987103 15.26388 0.05494968
-44.75262 96.92516 3080.695 -0.3004562 -6.122971 -9.860898 1.727255 19.09753 3.872874 -0 20.87308 -0 -0.2691856 -13.55819 -1.155515 0.1772809 -24.91854 -5.157868 -0 18.54017 -0 -5.862529 -7.509041 20.42114 0.100883 -3.575951 7.339612 -0.8747331 15.4203 -4.294588 0.4880717 21.33419 5.021193 4.645067 -15.97569 3.58296 1.988881 -26.47102 12.89885 84.36186 19.33255 -9.580667 -0 0 25.07389 -26.17445 14.41288 13.69238 4.823302 -23.78076 -8.199802 -97.75171 10.95559 33.19695 -0 0 0.8742707 9.914401 15.40407 0.08267046
-44.79736 96.61304 3087.797 0.2994834 -6.087222 -10.08301 0.4102159 19.12453 3.873251 -0 27.39794 -0 0.2946999 -10.02779 -1.1924 -1.640315 -23.22544 -6.507957 -0 18.9303 -0 -5.14469 -7.921578 20.24566 -0.09054571 -3.216664 7.045358 -1.067407 14.94129 -3.988956 0.5875169 21.74392 5.274663 4.815855 -15.9614 3.876799 2.031022 -25.73234 12.69129 84.21979 20.24594 -9.1637 -0 0 24.11358 -26.19466 13.82475 13.68685 5.008744 -23.2687 -7.973879 -97.46711 11.42357 32.21892 -0 0 1.043552 10.24157 15.62103 -0.3615585
-44.80601 96.86345 3095.006 0.8877792 -6.410193 -9.921796 -0.6433572 17.49751 3.812867 -0 35.46416 -0 0.640748 -5.413425 -1.606337 -3.449501 -20.32386 -7.679933 -0 20.54215 -0 -4.064677 -8.513338 19.91607 -0.2707829 -2.736001 6.581881 -1.25533 14.45017 -3.784029 0.6904346 22.22409 5.593334 5.101626 -15.94377 4.161632 2.086329 -24.56777 12.452 84.37925 21.30674 -9.289053 -0 0 22.45692 -26.01048 13.01549 13.3467 5.341928 -22.95743 -7.872114 -96.7348 11.88042 30.38617 -0 0 0.4630821 10.9679 15.88073 -1.285061
-44.78675 97.65826 3102.088 1.22798 -6.96955 -9.358996 -1.132281 14.06868 3.677414 -0 43.8295 -0 0.780542 -0.8403784 -2.416226 -4.777477 -16.39207 -8.372762 -0 22.03343 -0 -2.840801 -9.211616 19.44168 -0.4206048 -2.208891 5.974273 -1.389014 14.00154 -3.755562 0.7836308 22.68507 5.914513 5.449695 -15.9333 4.386152 2.147338 -23.09904 12.20968 84.8831 22.39926 -10.07233 -0 0 20.25396 -25.63844 12.14019 12.69713 5.81786 -22.9345 -7.905092 -95.50567 12.22924 27.73284 0 0 -1.112125 12.04079 16.12462 -2.646525
-44.74068 98.82497 3108.82 1.218899 -7.590343 -8.481609 -1.02735 9.087752 3.480603 -0 50.69275 -0 0.6827898 2.505686 -3.520372 -5.459374 -11.73982 -8.622091 -0 22.37968 -0 -1.818052 -10.04396 18.87553 -0.5369508 -1.727578 5.276963 -1.430647 13.63184 -3.945048 0.8516379 23.03888 6.181536 5.798332 -15.95243 4.509497 2.193068 -21.51118 11.98861 85.70296 23.39903 -11.49709 -0 0 17.76224 -25.17528 11.36355 11.83653 6.42057 -23.24414 -8.05023 -93.81992 12.35665 24.41859 0 0 -3.79196 13.35989 16.29098 -4.352768
-44.67177 100.0754 3115.072 0.9440405 -8.087405 -7.43918 -0.5643705 3.12004 3.224185 -0 54.3376 -0 0.3276191 3.926161 -4.696848 -5.616252 -6.785148 -8.672569 -0 21.23732 -0 -1.267962 -11.11197 18.25301 -0.6325579 -1.370164 4.566237 -1.370275 13.35471 -4.338637 0.8806004 23.23168 6.363182 6.098923 -16.0229 4.513409 2.197854 -19.99863 11.80545 86.73414 24.20036 -13.39677 -0 0 15.27843 -24.75942 10.7956 10.90323 7.117593 -23.86586 -8.262933 -91.82798 12.17265 20.72418 0 0 -7.451713 14.79749 16.33467 -6.270355
-44.59825 101.0968 3120.852 0.6019651 -8.314782 -6.37243 -0.07036523 -3.180578 2.851425 -0 53.83539 -0 -0.2076138 3.463281 -5.719387 -5.498498 -1.939541 -8.72846 -0 18.95028 -0 -1.231544 -12.50132 17.55478 -0.7243657 -1.173947 3.918419 -1.225665 13.16765 -4.876365 0.8634261 23.25588 6.456697 6.327905 -16.152 4.404017 2.146211 -18.70843 11.66895 87.83142 24.74535 -15.51652 -0 0 13.05265 -24.50244 10.46424 10.02378 7.859888 -24.72024 -8.49675 -89.74809 11.65275 16.98938 0 0 -11.75173 16.22433 16.2369 -8.245788
-44.55271 101.6452 3126.288 0.3844417 -8.202703 -5.371147 0.2084001 -9.266024 2.276321 -0 49.31876 -0 -0.7596981 1.731997 -6.465129 -5.340484 2.523123 -8.830406 -0 16.23389 -0 -1.545639 -14.20617 16.74113 -0.8202399 -1.130821 3.388684 -1.029417 13.0624 -5.479822 0.8026051 23.13982 6.478114 6.484484 -16.32917 4.205766 2.040678 -17.71568 11.58096 88.86089 25.03192 -17.60437 -0 0 11.23867 -24.44478 10.33411 9.278433 8.588805 -25.6968 -8.719528 -87.79575 10.85307 13.53425 0 0 -16.24391 17.53027 16.00714 -10.12715
-44.57176 101.5987 3131.579 0.3938905 -7.769065 -4.47334 0.1820884 -14.74422 1.460225 -0 41.76237 -0 -1.192452 -0.4395172 -6.921966 -5.286158 6.509801 -8.90709 -0 13.82846 -0 -1.993137 -16.10476 15.8111 -0.9134515 -1.201801 3.003936 -0.8154168 13.03255 -6.076344 0.7086973 22.92922 6.450573 6.581627 -16.53246 3.952196 1.89862 -17.03394 11.53856 89.73331 25.09538 -19.47076 -0 0 9.895586 -24.55771 10.34306 8.696325 9.24534 -26.6854 -8.919391 -86.13446 9.890314 10.61004 0 0 -20.48044 18.63553 15.67966 -11.78202
-44.68715 100.9654 3136.937 0.6247377 -7.108075 -3.681333 -0.07838028 -19.32556 0.470394 -0 32.6057 -0 -1.484177 -2.303784 -7.148351 -5.369778 10.04647 -8.878192 -0 12.3423 -0 -2.430452 -17.96518 14.82429 -0.9859759 -1.336505 2.768798 -0.6112841 13.07623 -6.610479 0.5961348 22.67158 6.39651 6.637582 -16.73691 3.677274 1.744013 -16.64056 11.53658 90.40806 24.98245 -21.00116 -0 0 9.01873 -24.7717 10.42961 8.26913 9.777177 -27.59652 -9.101694 -84.86295 8.904261 8.388499 0 0 -24.0809 19.49216 15.30396 -13.10775
